PathFileType	4	(X/Y/Z)	OpenSim_Sub04_CSBaseline_Gyro.trc
DataRate	CameraRate	NumFrames	NumMarkers	Units	OrigDataRate	OrigDataStartFrame	OrigNumFrames
100	100	13	8	m	100	2021	8083
Frame#	Time	torso_imu_offset_imu	pelvis_imu_offset_imu	tibia_r_imu_offset_imu	femur_r_imu_offset_imu	tibia_l_imu_offset_imu	femur_l_imu_offset_imu	toes_r_imu_offset_imu	toes_l_imu_offset_imu
				X1	Y1	Z1	X2	Y2	Z2	X3	Y3	Z3	X4	Y4	Z4	X5	Y5	Z5	X6	Y6	Z6	X7	Y7	Z7	X8		Y8	Z8	

2021	20.20000000	0.47089425	0.21453788	-0.31795773	-0.19253736	0.05133440	0.27082443	0.15409014	0.66865575	3.28741916	0.72881559	0.45247002	1.42725898	0.09625152	-0.26720813	0.67767961	0.28169387	-0.45333785	0.54314928	-0.76641956	5.32495236	1.81124936	-0.02776128	-0.29559658	0.23713736
2022	20.21000000	0.44412229	0.20327255	-0.28580200	-0.21723371	0.11682076	0.27858156	-0.16871911	0.84879756	3.62187385	0.81990017	0.43377434	1.30522610	0.05562141	-0.25828506	0.68585776	0.36540319	-0.40451720	0.56919915	-0.90658496	5.37557427	2.01357792	-0.05361956	-0.29066999	0.26680588
2023	20.22000000	0.40461493	0.19410493	-0.25820965	-0.24115733	0.16912191	0.28009812	-0.24245157	1.08209503	3.94085705	0.87495728	0.44860379	1.18644615	0.03386897	-0.24284487	0.68881024	0.41968168	-0.39119139	0.57368405	-0.92640160	5.21294368	2.17625329	-0.07275651	-0.26219808	0.26905220
2024	20.23000000	0.37528812	0.18599371	-0.23145043	-0.25462836	0.19130825	0.30627761	-0.16555221	1.18230838	4.29332300	0.90017470	0.46104766	1.05199451	0.04214778	-0.22627646	0.68342918	0.45157376	-0.43609557	0.57010527	-1.14343424	4.93956593	2.29590958	-0.07927169	-0.26074470	0.27674666
2025	20.24000000	0.35416249	0.17825160	-0.21153026	-0.26004532	0.19484328	0.33011046	-0.18434123	1.10965417	4.64948516	0.88834503	0.46143008	0.89404309	0.05413248	-0.20664212	0.64621862	0.41363169	-0.50150850	0.57496028	-1.25926769	4.76146776	2.27260725	-0.08968654	-0.26682807	0.28885041
2026	20.25000000	0.34811452	0.17483176	-0.19802645	-0.24721918	0.18495560	0.34904153	-0.30191754	1.06421447	4.92257643	0.83592885	0.44623333	0.72978535	0.05066867	-0.19660098	0.62358357	0.30682400	-0.57074838	0.57117012	-1.24153922	4.84072715	2.13063416	-0.09550295	-0.26382876	0.29061874
2027	20.26000000	0.34165464	0.16915459	-0.17146671	-0.21419881	0.16707854	0.36196081	-0.38570539	1.12793676	5.09461798	0.72376785	0.43152156	0.54813587	0.05840484	-0.20643167	0.62325527	0.19292218	-0.60735027	0.60931979	-1.08366938	5.01299010	1.92453539	-0.09080905	-0.27290314	0.29525086
2028	20.27000000	0.30746220	0.16612902	-0.14412377	-0.17010338	0.14625446	0.37311293	-0.49099860	1.13548012	5.22900980	0.56502681	0.41417828	0.36129036	0.07487286	-0.20457687	0.62396327	0.10166563	-0.62489881	0.64371269	-0.98267049	5.09255873	1.69181948	-0.07235698	-0.25914116	0.29671682
2029	20.28000000	0.27192783	0.15976776	-0.10601808	-0.09240755	0.12408441	0.35385198	-0.74060328	1.06980870	5.35529732	0.36127722	0.36467389	0.15287820	0.10193706	-0.19347414	0.62526122	0.05090650	-0.61335991	0.66068739	-1.01124820	5.07202836	1.48078803	-0.06643058	-0.28357534	0.31585484
2030	20.29000000	0.23923480	0.15863769	-0.06599403	-0.00876146	0.10057244	0.33915518	-1.02991046	1.03421569	5.44668829	0.15975132	0.28297716	-0.06795356	0.11094254	-0.19031487	0.62158434	0.03106558	-0.56429509	0.66280357	-1.08900405	5.07272836	1.28785735	-0.07360196	-0.28055663	0.34698080
2031	20.30000000	0.20230335	0.15332325	-0.03413856	0.07998898	0.07885790	0.30448524	-1.24168200	1.04893080	5.48969751	0.00244582	0.18620457	-0.29030058	0.11516956	-0.18702332	0.64627742	0.05185795	-0.47885371	0.67335939	-1.12754733	5.15889706	1.12217482	-0.08931566	-0.29644144	0.36065774
2032	20.31000000	0.15511684	0.13633852	0.00411247	0.16151652	0.06433181	0.26775639	-1.42873215	1.03230211	5.43830103	-0.12259402	0.06877088	-0.49335087	0.14629010	-0.16837817	0.67452289	0.08628134	-0.41192315	0.68553229	-1.08637091	5.28699865	0.99255553	-0.04695665	-0.31556357	0.36308648
2033	20.32000000	0.11107297	0.11925152	0.03280137	0.24264715	0.05384131	0.22864881	-1.59749650	0.96864083	5.34501243	-0.23906611	-0.07269580	-0.67033694	0.20739978	-0.17383275	0.68779042	0.11668803	-0.36677089	0.68555490	-0.99965211	5.34748633	0.89331610	-0.04494066	-0.34419375	0.37728901
